<!DOCTYPE svg PUBLIC "-//W3C//DTD SVG 1.1//EN" "http://www.w3.org/Graphics/SVG/1.1/DTD/svg11.dtd">
<!-- Uploaded to: SVG Repo, www.svgrepo.com, Transformed by: SVG Repo Mixer Tools -->
<svg height="256px" width="256px" version="1.1" id="Layer_1" xmlns="http://www.w3.org/2000/svg" xmlns:xlink="http://www.w3.org/1999/xlink" viewBox="0 0 511.993 511.993" xml:space="preserve" fill="#000000">

<g id="SVGRepo_bgCarrier" stroke-width="0"/>

<g id="SVGRepo_tracerCarrier" stroke-linecap="round" stroke-linejoin="round"/>

<g id="SVGRepo_iconCarrier"> <polygon style="fill:#eccc3d;" points="256.005,12.4 198.591,198.142 12.883,198.142 163.125,312.919 105.754,498.661 256.022,383.867 406.256,498.661 348.885,312.893 499.127,198.142 313.394,198.116 "/> <path style="fill:#000000;" d="M499.204,185.315H322.856L268.227,8.541c-3.296-10.749-21.148-10.749-24.453,0l-54.62,176.773H12.806 c-5.485,0-10.365,3.501-12.128,8.696s-0.009,10.953,4.352,14.275l143.207,109.377L93.472,494.939 c-1.652,5.323,0.341,11.098,4.897,14.275c4.574,3.151,10.663,3.049,15.101-0.324l142.526-108.9l142.526,108.9 c2.3,1.755,5.034,2.623,7.776,2.623c2.564,0,5.127-0.775,7.325-2.3c4.565-3.177,6.55-8.952,4.897-14.275l-54.765-177.276 l143.207-109.377c4.361-3.322,6.115-9.071,4.352-14.275C509.561,188.815,504.689,185.315,499.204,185.315z M341.125,302.741 c-4.259,3.254-6.039,8.824-4.446,13.951l45.575,147.551l-118.474-90.529c-2.3-1.746-5.034-2.623-7.776-2.623 s-5.477,0.877-7.776,2.623l-118.474,90.52l45.575-147.551c1.584-5.127-0.187-10.698-4.446-13.951L50.656,210.917h147.934 c5.613,0,10.578-3.654,12.222-9.028l45.183-146.222l45.184,146.222c1.652,5.374,6.609,9.028,12.222,9.028h147.934L341.125,302.741z"/> </g>

</svg>